<svg width="31" height="31" viewBox="0 0 31 31" fill="none" xmlns="http://www.w3.org/2000/svg">
<path d="M24.5423 11.625C24.5423 6.63146 20.4942 2.58337 15.5007 2.58337C10.5071 2.58337 6.45898 6.63146 6.45898 11.625C6.45898 13.4166 6.98857 15.0828 7.88628 16.4882H7.87594C10.9243 21.2609 15.5007 28.4167 15.5007 28.4167L23.1254 16.4882H23.1163C24.0127 15.0828 24.5423 13.4166 24.5423 11.625ZM15.5007 15.5C13.3604 15.5 11.6257 13.7653 11.6257 11.625C11.6257 9.48475 13.3604 7.75004 15.5007 7.75004C17.6409 7.75004 19.3757 9.48475 19.3757 11.625C19.3757 13.7653 17.6409 15.5 15.5007 15.5Z" fill="#E4D9D9"/>
</svg>
